Coordinates
version=1
nRows=4
nColumns=63
inDegrees=yes

Units are S.I. units (second, meters, Newtons, ...)
If the header above contains a line with 'inDegrees', this indicates whether rotational values are in degrees (yes) or radians (no).

endheader
time	pelvis_tilt	pelvis_list	pelvis_rotation	pelvis_tx	pelvis_ty	pelvis_tz	hip_flexion_r	hip_adduction_r	hip_rotation_r	knee_angle_r	knee_angle_r_beta	ankle_angle_r	subtalar_angle_r	mtp_angle_r	hip_flexion_l	hip_adduction_l	hip_rotation_l	knee_angle_l	knee_angle_l_beta	ankle_angle_l	subtalar_angle_l	mtp_angle_l	L5_S1_Flex_Ext	L5_S1_Lat_Bending	L5_S1_axial_rotation	L4_L5_Flex_Ext	L4_L5_Lat_Bending	L4_L5_axial_rotation	L3_L4_Flex_Ext	L3_L4_Lat_Bending	L3_L4_axial_rotation	L2_L3_Flex_Ext	L2_L3_Lat_Bending	L2_L3_axial_rotation	L1_L2_Flex_Ext	L1_L2_Lat_Bending	L1_L2_axial_rotation	L1_T12_Flex_Ext	L1_T12_Lat_Bending	L1_T12_axial_rotation	Abs_r3	Abs_r2	Abs_r1	Abs_t1	Abs_t2	neck_flexion	neck_bending	neck_rotation	arm_flex_r	arm_add_r	arm_rot_r	elbow_flex_r	pro_sup_r	wrist_flex_r	wrist_dev_r	arm_flex_l	arm_add_l	arm_rot_l	elbow_flex_l	pro_sup_l	wrist_flex_l	wrist_dev_l
      3.33333333	     19.04602693	     11.62500144	    148.98135466	     -0.40986328	      0.93517616	      0.13507913	     22.19613581	     20.86046903	     39.20364222	      0.09430786	      0.00164598	   -185.44278115	      5.92740386	      0.00000000	     12.32262880	    -20.91543981	    -58.87504488	     15.20418781	      0.26536314	    -26.38063272	    -19.54328615	      0.00000000	      0.29804244	      2.43369333	      0.72061653	      0.55349462	      3.23681213	      0.76565507	      0.48965393	      5.91728197	      0.76565507	      0.34063271	      5.91728197	      0.63053947	      0.27676221	      4.96278745	      0.58550093	      0.17030145	      3.76979097	      0.54046240	      2.12888736	     27.53042573	      4.00785297	      0.00000000	      0.00000000	     28.16253884	    -47.19951797	    -44.36336163	      1.13356701	    -30.47493246	    179.62815304	     12.82668121	    -61.30840831	     20.00394846	      5.00000014	      8.80233124	     -0.12970537	   -510.07745196	     17.55845231	    -29.70282301	     20.00394846	      5.00000014
      3.36666667	     13.65536955	     11.96023723	    154.46562731	     -0.42109704	      0.94103367	      0.13987599	     14.09025281	     16.73316854	     39.10099668	      0.08706229	      0.00151952	   -179.38341415	      2.27510023	      0.00000000	      7.95311920	    -16.95631274	    -53.69092015	     14.51988595	      0.25341982	    -28.23785983	    -19.55151154	      0.00000000	      0.15430611	      2.24641209	     -0.85715029	      0.28656187	      2.98772807	     -0.91072218	      0.25350951	      5.46192634	     -0.91072218	      0.17635645	      5.46192634	     -0.75000651	      0.14328865	      4.58088352	     -0.69643461	      0.08817051	      3.47969232	     -0.64286272	      1.10219310	     25.41186279	     -4.76721278	      0.00000000	      0.00000000	     28.07727536	    -46.27377783	    -44.27964760	     -2.46043343	    -30.90980213	    158.70642937	      5.40264383	    -54.92417179	     20.00394845	      5.00000014	      6.09323749	     -0.87894818	   -518.04919701	     20.07876322	    -27.81419009	     20.00394845	      5.00000014
      3.40000000	      6.40571379	      9.11845534	    160.09128165	     -0.42820060	      0.94667457	      0.14156909	      5.13837708	     10.50679137	     38.93288762	      0.08522280	      0.00148742	   -172.90196739	     -2.50901634	      0.00000000	      2.25392653	    -10.02350526	    -52.84029092	     12.00056364	      0.20944935	    -32.96809292	    -19.56283146	      0.00000000	     -0.03321602	      1.51680671	     -2.67415832	     -0.06168548	      2.01735293	     -2.84129321	     -0.05457061	      3.68796384	     -2.84129321	     -0.03796259	      3.68796384	     -2.33988853	     -0.03084440	      3.09307225	     -2.17275363	     -0.01897964	      2.34953360	     -2.00561874	     -0.23725874	     17.15842089	    -14.87286633	      0.00000000	      0.00000000	     27.89973587	    -42.56580242	    -44.12632079	     -1.58638165	    -26.28191027	    171.07721377	      0.71801979	    -72.44002225	     20.00394845	      5.00000014	      3.26653702	     -4.69112993	   -530.43151741	     23.07479111	    -26.25146060	     20.00394845	      5.00000014
      3.43333333	     -1.24369236	      3.44635675	    164.04208791	     -0.43009333	      0.95167866	      0.13949425	     -3.66777726	      2.80682443	     38.57693237	      0.08764535	      0.00152970	   -166.05115484	     -7.31295191	      0.00000000	     -3.63787020	     -1.47437951	    -56.10287485	      9.03206071	      0.15763920	    -40.06897625	    -19.57185860	      0.00000000	     -0.17560139	      0.36039518	     -4.33007877	     -0.32610933	      0.47932558	     -4.60070869	     -0.28849552	      0.87626483	     -4.60070869	     -0.20069482	      0.87626483	     -3.78881892	     -0.16306345	      0.73491784	     -3.51818900	     -0.10033863	      0.55825213	     -3.24755908	     -1.25430314	      4.07686230	    -24.08259909	      0.00000000	      0.00000000	     27.50893242	    -37.51470629	    -43.86524786	      1.78346719	    -18.98602157	    178.72259959	      0.29867291	    -80.22922756	     20.00394843	      5.00000014	     -0.14341431	    -11.76447793	   -551.20621115	     25.50056344	      9.99817005	     20.00394843	      5.00000014
